# xmcd CD database file generated by LOLA_Freedb v0.9beta0
# 
# Track frame offsets:
#      150
#      16888
#      37669
#      55266
#      68901
#      86797
#      98804
#      111961
#      127354
#      147299
#      161434
#      178258
#      190434
#      204467
# 
# Disc length: 2945 seconds
# 
# Revision: 0 
# Processed by: cddbd v1.5.2PL0 Copyright (c) Steve Scherf et al.
# Submitted via: LOLA_Freedb v0.9beta0
# 
DISCID=c90b7f0e
DTITLE=Wild Bunch - Come On
DYEAR=2010
DGENRE=
TTITLE0=Wild Bunch - Nothing Stays The Same
TTITLE1=Wild Bunch - Come On, Come On
TTITLE2=Wild Bunch - You Are My Sunshine
TTITLE3=Wild Bunch - I'm Going Down
TTITLE4=Wild Bunch - Vitamy Means Hello
TTITLE5=Wild Bunch - Soldier
TTITLE6=Wild Bunch - Train
TTITLE7=Wild Bunch - I Want To Break Free
TTITLE8=Wild Bunch - There's A Way
TTITLE9=Wild Bunch - Love Eternally
TTITLE10=Wild Bunch - She's Gotta Move On
TTITLE11=Wild Bunch - Don't Be Cruel
TTITLE12=
TTITLE13=
EXTD=
EXTT0=
EXTT1=
EXTT2=
EXTT3=
EXTT4=
EXTT5=
EXTT6=
EXTT7=
EXTT8=
EXTT9=
EXTT10=
EXTT11=
EXTT12=
EXTT13=
PLAYORDER=
